<svg width="18" height="18" viewBox="0 0 18 18" fill="none" xmlns="http://www.w3.org/2000/svg">
<path id="Vector" d="M16.9512 18C14.8679 18 12.8096 17.546 10.7762 16.638C8.74289 15.73 6.89289 14.4423 5.22622 12.775C3.55955 11.1077 2.27222 9.25767 1.36422 7.225C0.456221 5.19233 0.00188737 3.134 0.0012207 1.05C0.0012207 0.75 0.101221 0.5 0.301221 0.3C0.501221 0.0999999 0.751221 0 1.05122 0H5.10122C5.33455 0 5.54289 0.0793332 5.72622 0.238C5.90955 0.396667 6.01789 0.584 6.05122 0.8L6.70122 4.3C6.73455 4.56667 6.72622 4.79167 6.67622 4.975C6.62622 5.15833 6.53455 5.31667 6.40122 5.45L3.97622 7.9C4.30955 8.51667 4.70522 9.11233 5.16322 9.687C5.62122 10.2617 6.12555 10.816 6.67622 11.35C7.19289 11.8667 7.73455 12.346 8.30122 12.788C8.86789 13.23 9.46789 13.634 10.1012 14L12.4512 11.65C12.6012 11.5 12.7972 11.3877 13.0392 11.313C13.2812 11.2383 13.5186 11.2173 13.7512 11.25L17.2012 11.95C17.4346 12.0167 17.6262 12.1377 17.7762 12.313C17.9262 12.4883 18.0012 12.684 18.0012 12.9V16.95C18.0012 17.25 17.9012 17.5 17.7012 17.7C17.5012 17.9 17.2512 18 16.9512 18Z" fill="black"/>
</svg>
