<svg width="20" height="21" viewBox="0 0 20 21" fill="none" xmlns="http://www.w3.org/2000/svg">
<path id="Vector" d="M8.47622 20.0727C8.38204 19.804 8.33413 19.5212 8.33455 19.2364V13.3818C8.33455 12.7395 8.57539 12.1524 8.97122 11.7091H2.50122C1.83818 11.7091 1.20229 11.9734 0.733454 12.444C0.264613 12.9145 0.0012207 13.5527 0.0012207 14.2182V14.8162C0.0012207 17.9258 3.50955 20.0727 8.33455 20.0727H8.47622ZM13.3346 5.01818C13.3346 3.68728 12.8078 2.41088 11.8701 1.46979C10.9324 0.5287 9.66064 0 8.33455 0C7.00847 0 5.7367 0.5287 4.79902 1.46979C3.86134 2.41088 3.33455 3.68728 3.33455 5.01818C3.33455 6.34909 3.86134 7.62548 4.79902 8.56657C5.7367 9.50766 7.00847 10.0364 8.33455 10.0364C9.66064 10.0364 10.9324 9.50766 11.8701 8.56657C12.8078 7.62548 13.3346 6.34909 13.3346 5.01818ZM11.2512 11.7091C10.6987 11.7091 10.1688 11.9294 9.77808 12.3215C9.38738 12.7136 9.16789 13.2455 9.16789 13.8V13.9597L14.5846 16.6779L20.0012 13.9597V13.8C20.0012 13.2455 19.7817 12.7136 19.391 12.3215C19.0003 11.9294 18.4704 11.7091 17.9179 11.7091H11.2512ZM20.0012 14.8948L14.7712 17.5193C14.7133 17.5484 14.6494 17.5636 14.5846 17.5636C14.5197 17.5636 14.4558 17.5484 14.3979 17.5193L9.16789 14.8956V18.8182C9.16789 19.3727 9.38738 19.9046 9.77808 20.2967C10.1688 20.6888 10.6987 20.9091 11.2512 20.9091H17.9179C18.4704 20.9091 19.0003 20.6888 19.391 20.2967C19.7817 19.9046 20.0012 19.3727 20.0012 18.8182V14.8948Z" fill="black"/>
</svg>
