<svg width="13" height="20" viewBox="0 0 13 20" fill="none" xmlns="http://www.w3.org/2000/svg">
<path id="Vector" d="M6.50031 9.74985C6.50031 5.41814 13 5.41814 13 9.74985C13 14.0816 6.50031 14.0816 6.50031 9.74985ZM0.000609574 16.2495C0.000369279 15.8227 0.0842571 15.4001 0.247477 15.0057C0.410697 14.6114 0.650047 14.253 0.951843 13.9512C1.25364 13.6494 1.61196 13.4101 2.00632 13.2469C2.40068 13.0836 2.82335 12.9998 3.25015 13H6.4997V16.2495C6.4997 20.5813 0 20.5813 0 16.2495H0.000609574ZM6.50031 0.000609842V6.50031H9.74985C14.0816 6.50031 14.0816 0.000609842 9.74985 0.000609842H6.50031ZM0.000609574 3.25015C0.000369279 3.67696 0.0842571 4.09962 0.247477 4.49398C0.410697 4.88834 0.650047 5.24667 0.951843 5.54846C1.25364 5.85026 1.61196 6.08961 2.00632 6.25283C2.40068 6.41605 2.82335 6.49994 3.25015 6.4997H6.4997V5.14778e-07H3.25015C2.82335 -0.00023978 2.40068 0.0836482 2.00632 0.246868C1.61196 0.410088 1.25364 0.649438 0.951843 0.951234C0.650047 1.25303 0.410697 1.61135 0.247477 2.00571C0.0842571 2.40007 0.000369279 2.82274 0.000609574 3.24954V3.25015ZM0.000609574 9.74985C0.000369279 10.1767 0.0842571 10.5993 0.247477 10.9937C0.410697 11.388 0.650047 11.7464 0.951843 12.0482C1.25364 12.35 1.61196 12.5893 2.00632 12.7525C2.40068 12.9157 2.82335 13.0002 3.25015 13H6.4997V6.4997H3.25015C2.82335 6.49946 2.40068 6.58334 2.00632 6.74656C1.61196 6.90978 1.25364 7.14913 0.951843 7.45093C0.650047 7.75273 0.410697 8.11105 0.247477 8.50541C0.0842571 8.89977 0.000369279 9.32244 0.000609574 9.74924V9.74985Z" fill="black"/>
</svg>
