<svg width="20" height="20" viewBox="0 0 20 20" fill="none" xmlns="http://www.w3.org/2000/svg">
<path id="Vector" d="M10.0012 0C8.688 0 7.38764 0.265079 6.17439 0.780103C4.96113 1.29513 3.85874 2.05001 2.93015 3.00165C1.05479 4.92357 0.0012207 7.53026 0.0012207 10.2483C0.0012207 14.778 2.87122 18.6211 6.84122 19.9841C7.34122 20.0661 7.50122 19.7484 7.50122 19.4717V17.7398C4.73122 18.3547 4.14122 16.3665 4.14122 16.3665C3.68122 15.1777 3.03122 14.86 3.03122 14.86C2.12122 14.2246 3.10122 14.2451 3.10122 14.2451C4.10122 14.3168 4.63122 15.3007 4.63122 15.3007C5.50122 16.8584 6.97122 16.3972 7.54122 16.1513C7.63122 15.4851 7.89122 15.0342 8.17122 14.778C5.95122 14.5218 3.62122 13.6404 3.62122 9.73586C3.62122 8.5983 4.00122 7.6862 4.65122 6.95858C4.55122 6.70237 4.20122 5.63655 4.75122 4.25303C4.75122 4.25303 5.59122 3.97633 7.50122 5.29836C8.29122 5.07289 9.15122 4.96016 10.0012 4.96016C10.8512 4.96016 11.7112 5.07289 12.5012 5.29836C14.4112 3.97633 15.2512 4.25303 15.2512 4.25303C15.8012 5.63655 15.4512 6.70237 15.3512 6.95858C16.0012 7.6862 16.3812 8.5983 16.3812 9.73586C16.3812 13.6507 14.0412 14.5116 11.8112 14.7678C12.1712 15.0855 12.5012 15.7106 12.5012 16.6637V19.4717C12.5012 19.7484 12.6612 20.0764 13.1712 19.9841C17.1412 18.6109 20.0012 14.778 20.0012 10.2483C20.0012 8.90245 19.7426 7.5698 19.24 6.32643C18.7375 5.08305 18.0009 3.95329 17.0723 3.00165C16.1437 2.05001 15.0413 1.29513 13.8281 0.780103C12.6148 0.265079 11.3144 0 10.0012 0Z" fill="black"/>
</svg>
