<svg width="20" height="20" viewBox="0 0 20 20" fill="none" xmlns="http://www.w3.org/2000/svg">
<path id="Vector" d="M11.0293 -0.000244141C12.1543 0.00275586 12.7253 0.00875586 13.2183 0.0227559L13.4123 0.0297558C13.6363 0.0377558 13.8573 0.0477558 14.1243 0.0597558C15.1883 0.109756 15.9143 0.277756 16.5513 0.524756C17.2113 0.778756 17.7673 1.12276 18.3233 1.67776C18.832 2.17749 19.2255 2.78223 19.4763 3.44976C19.7233 4.08676 19.8913 4.81276 19.9413 5.87776C19.9533 6.14376 19.9633 6.36476 19.9713 6.58976L19.9773 6.78376C19.9923 7.27576 19.9983 7.84676 20.0003 8.97176L20.0013 9.71776V11.0278C20.0037 11.7572 19.9961 12.4866 19.9783 13.2158L19.9723 13.4098C19.9643 13.6348 19.9543 13.8558 19.9423 14.1218C19.8923 15.1868 19.7223 15.9118 19.4763 16.5498C19.2255 17.2173 18.832 17.822 18.3233 18.3218C17.8236 18.8304 17.2188 19.2239 16.5513 19.4748C15.9143 19.7218 15.1883 19.8898 14.1243 19.9398L13.4123 19.9698L13.2183 19.9758C12.7253 19.9898 12.1543 19.9968 11.0293 19.9988L10.2833 19.9998H8.9743C8.24456 20.0023 7.51482 19.9947 6.7853 19.9768L6.5913 19.9708C6.35391 19.9618 6.11657 19.9514 5.8793 19.9398C4.8153 19.8898 4.0893 19.7218 3.4513 19.4748C2.78413 19.2238 2.17974 18.8303 1.6803 18.3218C1.17125 17.8221 0.77741 17.2174 0.526301 16.5498C0.279301 15.9128 0.111301 15.1868 0.0613012 14.1218L0.0313012 13.4098L0.0263013 13.2158C0.00786736 12.4866 -0.000466873 11.7572 0.00130122 11.0278V8.97176C-0.00146668 8.24236 0.00586744 7.51295 0.0233013 6.78376L0.0303013 6.58976C0.0383013 6.36476 0.0483012 6.14376 0.0603012 5.87776C0.110301 4.81276 0.278301 4.08776 0.525301 3.44976C0.776996 2.78195 1.17152 2.17719 1.6813 1.67776C2.18045 1.1693 2.78449 0.775829 3.4513 0.524756C4.0893 0.277756 4.8143 0.109756 5.8793 0.0597558C6.1453 0.0477558 6.3673 0.0377558 6.5913 0.0297558L6.7853 0.0237558C7.51449 0.00598857 8.2439 -0.00167884 8.9733 0.000755787L11.0293 -0.000244141ZM10.0013 4.99976C8.67522 4.99976 7.40345 5.52654 6.46577 6.46422C5.52809 7.4019 5.0013 8.67367 5.0013 9.99976C5.0013 11.3258 5.52809 12.5976 6.46577 13.5353C7.40345 14.473 8.67522 14.9998 10.0013 14.9998C11.3274 14.9998 12.5992 14.473 13.5368 13.5353C14.4745 12.5976 15.0013 11.3258 15.0013 9.99976C15.0013 8.67367 14.4745 7.4019 13.5368 6.46422C12.5992 5.52654 11.3274 4.99976 10.0013 4.99976ZM10.0013 6.99976C10.3953 6.99969 10.7854 7.07722 11.1494 7.22793C11.5134 7.37863 11.8441 7.59955 12.1228 7.87808C12.4014 8.15661 12.6224 8.48729 12.7732 8.85124C12.9241 9.2152 13.0017 9.60529 13.0018 9.99926C13.0019 10.3932 12.9243 10.7833 12.7736 11.1473C12.6229 11.5113 12.402 11.8421 12.1235 12.1207C11.8449 12.3993 11.5143 12.6204 11.1503 12.7712C10.7864 12.922 10.3963 12.9997 10.0023 12.9998C9.20665 12.9998 8.44359 12.6837 7.88098 12.1211C7.31837 11.5585 7.0023 10.7954 7.0023 9.99976C7.0023 9.20411 7.31837 8.44104 7.88098 7.87844C8.44359 7.31583 9.20665 6.99976 10.0023 6.99976M15.2523 3.49976C14.9208 3.49976 14.6028 3.63145 14.3684 3.86587C14.134 4.10029 14.0023 4.41824 14.0023 4.74976C14.0023 5.08128 14.134 5.39922 14.3684 5.63364C14.6028 5.86806 14.9208 5.99976 15.2523 5.99976C15.5838 5.99976 15.9018 5.86806 16.1362 5.63364C16.3706 5.39922 16.5023 5.08128 16.5023 4.74976C16.5023 4.41824 16.3706 4.10029 16.1362 3.86587C15.9018 3.63145 15.5838 3.49976 15.2523 3.49976Z" fill="black"/>
</svg>
