<svg width="18" height="18" viewBox="0 0 18 18" fill="none" xmlns="http://www.w3.org/2000/svg">
<path id="Vector" d="M16.0012 0C16.5317 0 17.0404 0.210714 17.4154 0.585786C17.7905 0.960859 18.0012 1.46957 18.0012 2V16C18.0012 16.5304 17.7905 17.0391 17.4154 17.4142C17.0404 17.7893 16.5317 18 16.0012 18H2.00122C1.47079 18 0.96208 17.7893 0.587007 17.4142C0.211934 17.0391 0.0012207 16.5304 0.0012207 16V2C0.0012207 1.46957 0.211934 0.960859 0.587007 0.585786C0.96208 0.210714 1.47079 0 2.00122 0H16.0012ZM15.5012 15.5V10.2C15.5012 9.33539 15.1578 8.5062 14.5464 7.89483C13.935 7.28346 13.1058 6.94 12.2412 6.94C11.3912 6.94 10.4012 7.46 9.92122 8.24V7.13H7.13122V15.5H9.92122V10.57C9.92122 9.8 10.5412 9.17 11.3112 9.17C11.6825 9.17 12.0386 9.3175 12.3012 9.58005C12.5637 9.8426 12.7112 10.1987 12.7112 10.57V15.5H15.5012ZM3.88122 5.56C4.32678 5.56 4.7541 5.383 5.06916 5.06794C5.38422 4.75288 5.56122 4.32556 5.56122 3.88C5.56122 2.95 4.81122 2.19 3.88122 2.19C3.433 2.19 3.00315 2.36805 2.68621 2.68499C2.36927 3.00193 2.19122 3.43178 2.19122 3.88C2.19122 4.81 2.95122 5.56 3.88122 5.56ZM5.27122 15.5V7.13H2.50122V15.5H5.27122Z" fill="black"/>
</svg>
