<svg width="18" height="18" viewBox="0 0 18 18" fill="none" xmlns="http://www.w3.org/2000/svg">
<g id="Group">
<path id="Vector" d="M17 14.3301C17.2549 14.3304 17.5 14.428 17.6854 14.603C17.8707 14.7779 17.9822 15.0171 17.9972 15.2715C18.0121 15.5259 17.9293 15.7765 17.7657 15.9719C17.6021 16.1674 17.3701 16.293 17.117 16.3231L17 16.3301H1C0.74512 16.3298 0.499968 16.2322 0.314632 16.0573C0.129296 15.8823 0.017765 15.6432 0.00282788 15.3887C-0.0121092 15.1343 0.0706746 14.8837 0.234265 14.6883C0.397855 14.4928 0.629904 14.3672 0.883 14.3371L1 14.3301H17ZM17 7.33011C17.2652 7.33011 17.5196 7.43547 17.7071 7.623C17.8946 7.81054 18 8.06489 18 8.33011C18 8.59533 17.8946 8.84968 17.7071 9.03722C17.5196 9.22475 17.2652 9.33011 17 9.33011H1C0.734784 9.33011 0.48043 9.22475 0.292893 9.03722C0.105357 8.84968 0 8.59533 0 8.33011C0 8.06489 0.105357 7.81054 0.292893 7.623C0.48043 7.43547 0.734784 7.33011 1 7.33011H17ZM17 0.330109C17.2652 0.330109 17.5196 0.435466 17.7071 0.623002C17.8946 0.810538 18 1.06489 18 1.33011C18 1.59533 17.8946 1.84968 17.7071 2.03722C17.5196 2.22475 17.2652 2.33011 17 2.33011H1C0.734784 2.33011 0.48043 2.22475 0.292893 2.03722C0.105357 1.84968 0 1.59533 0 1.33011C0 1.06489 0.105357 0.810538 0.292893 0.623002C0.48043 0.435466 0.734784 0.330109 1 0.330109H17Z" fill="black"/>
</g>
</svg>
