<svg width="22" height="22" viewBox="0 0 22 22" fill="none" xmlns="http://www.w3.org/2000/svg">
<path id="needle" d="M1.72866 3.76658e-05C1.70691 -0.000193472 1.68526 0.000684883 1.66355 0.00142452C1.63458 0.00250317 1.60566 0.0044447 1.57678 0.00724917C1.23117 0.040533 0.897321 0.199001 0.54431 0.521531C0.0822214 0.943495 -0.0509676 1.33791 0.0164136 1.80287C0.0837485 2.26773 0.402976 2.83078 0.994043 3.41648C1.12802 3.54925 1.27754 3.68169 1.43799 3.8152C1.49676 3.86397 1.55669 3.91366 1.6188 3.96248C1.67139 4.00398 1.72443 4.0449 1.77791 4.08526C1.78864 4.09335 1.79892 4.10181 1.80974 4.10985C2.55691 4.66634 3.52172 5.21645 4.66442 5.72217C12.0561 13.1791 18.0303 19.4773 22 22C19.6347 18.0418 13.326 12.0786 5.80259 4.64013C5.32916 3.53982 4.82542 2.61952 4.31733 1.89967C5.95836 1.42861 8.13608 1.79362 10.1368 3.79222C11.9992 5.65251 12.573 7.98857 12.0516 9.7252C12.2779 9.95236 12.509 10.1835 12.7313 10.4071C13.6139 8.27597 12.943 5.37311 10.7486 3.18109C9.09673 1.53109 7.2555 0.854739 5.61021 0.859546C5.55713 0.859777 5.50377 0.860933 5.45111 0.862505C4.4402 0.892553 3.50941 1.18138 2.75105 1.65702C2.61844 1.74018 2.49006 1.82988 2.36638 1.92578C2.42793 2.06881 2.49402 2.19779 2.57028 2.30568C2.65914 2.43142 2.75558 2.53386 2.88988 2.61485C2.99179 2.53548 3.09804 2.45883 3.21096 2.38806C3.26044 2.35664 3.31059 2.32627 3.36136 2.29699C3.74066 2.76333 4.07706 3.4353 4.54007 4.48124C3.4337 3.99271 2.74346 3.6473 2.27091 3.2331C2.27202 3.23171 2.27276 3.23019 2.27387 3.2288C2.25383 3.21354 2.23375 3.19852 2.21463 3.18257C2.21408 3.18217 2.21357 3.18171 2.21311 3.18119C1.69409 2.70157 1.44803 2.121 1.18064 1.12406C1.45775 1.19826 1.70155 1.27153 1.92109 1.34799C2.30538 1.05703 2.72165 0.810819 3.16181 0.614124C2.72217 0.256416 2.30326 0.0626298 1.92683 0.0145532C1.86005 0.00600107 1.79401 0.000638624 1.72866 3.76658e-05ZM21.9276 2.12355C18.3186 2.12355 16.1157 3.45887 15.1652 5.33201C14.2148 7.20515 14.5176 9.51052 15.6136 11.4066C16.1405 12.3182 16.4377 13.2875 16.5015 14.2367C16.7874 14.5315 17.0723 14.8271 17.3563 15.1237C17.4632 13.7389 17.1216 12.2876 16.3627 10.9747C15.3848 9.28271 15.1523 7.27135 15.9376 5.72356C16.7229 4.17577 18.5264 2.98745 21.9277 2.98745V2.12364L21.9276 2.12355ZM0.853727 4.461C0.719798 5.56699 1.13973 6.78208 2.22042 7.86159L2.83212 7.25194C2.09306 6.51368 1.75902 5.78037 1.70122 5.09806C1.39366 4.88957 1.11099 4.67729 0.853681 4.46095L0.853727 4.461ZM4.84084 11.9527C3.70859 11.9514 2.75646 12.1802 2.00198 12.584C0.852339 13.1993 0.180331 14.242 0.116143 15.3794C-0.0125103 17.6541 2.16997 20.1246 6.61385 20.8472C11.3171 21.612 14.4952 20.4226 16.1197 18.348C16.1664 18.2885 16.2117 18.2283 16.2558 18.1675C16.0451 17.9718 15.8324 17.7736 15.6179 17.5723C15.5608 17.655 15.5013 17.7364 15.4386 17.8164C14.0516 19.5876 11.2571 20.7273 6.75273 19.9949C2.56945 19.3146 0.884826 17.1044 0.979512 15.4284C1.02685 14.5904 1.48774 13.8395 2.41127 13.3453C3.33475 12.851 4.73754 12.635 6.59946 13C8.17648 13.3092 9.51212 13.1604 10.5533 12.6793C10.3349 12.4644 10.1142 12.248 9.89248 12.0292C9.08053 12.3274 8.04644 12.4031 6.76574 12.152C6.07642 12.0168 5.43394 11.9533 4.84084 11.9526V11.9527Z" fill="black"/>
</svg>
