<svg width="20" height="20" viewBox="0 0 20 20" fill="none" xmlns="http://www.w3.org/2000/svg">
<g id="Group">
<path id="Vector" d="M1.39602 1.36803L7.65094 7.63338M10.4324 15.5232L4.81539 13.6477C4.72535 13.6178 4.64385 13.5665 4.5778 13.4983C4.51176 13.4301 4.46311 13.3469 4.436 13.2559L1.0245 1.75887C0.993788 1.65529 0.992028 1.54526 1.01941 1.44075C1.04679 1.33624 1.10227 1.24126 1.1798 1.16613C1.25733 1.09101 1.35395 1.03863 1.45914 1.01468C1.56433 0.990741 1.67406 0.996158 1.77639 1.03034L12.9554 4.76357C13.0357 4.79032 13.1093 4.83406 13.1712 4.89182C13.2331 4.94957 13.2818 5.01999 13.3142 5.0983L15.4942 10.4018C15.5386 10.5096 15.5502 10.6282 15.5275 10.7426C15.5047 10.857 15.4487 10.9621 15.3664 11.0447L11.0359 15.3804C10.9585 15.458 10.861 15.5124 10.7544 15.5377C10.6478 15.5629 10.5363 15.5579 10.4324 15.5232Z" stroke="black" stroke-width="1.5" stroke-linecap="round" stroke-linejoin="round"/>
<path id="Vector_2" d="M10.7783 15.6393L13.5588 18.4235C13.9274 18.7926 14.4273 19 14.9486 19C15.4698 19 15.9697 18.7926 16.3383 18.4235L18.424 16.3364C18.6066 16.1535 18.7515 15.9364 18.8503 15.6975C18.9491 15.4585 19 15.2024 19 14.9438C19 14.6851 18.9491 14.429 18.8503 14.1901C18.7515 13.9511 18.6066 13.7341 18.424 13.5512L15.6435 10.767M9.73647 9.7215C9.87335 9.58433 9.98192 9.42149 10.056 9.24229C10.13 9.06309 10.1681 8.87103 10.1681 8.67709C10.168 8.48314 10.1298 8.2911 10.0557 8.11194C9.98157 7.93277 9.87293 7.76999 9.73598 7.63288C9.59904 7.49577 9.43647 7.38703 9.25757 7.31285C9.07867 7.23867 8.88693 7.20052 8.69331 7.20056C8.49969 7.20061 8.30797 7.23885 8.12911 7.31311C7.95024 7.38738 7.78772 7.4962 7.65084 7.63337C7.3744 7.91041 7.21915 8.28609 7.21924 8.67778C7.21934 9.06948 7.37476 9.44509 7.65134 9.72199C7.92791 9.99889 8.30297 10.1544 8.69401 10.1543C9.08505 10.1542 9.46003 9.99853 9.73647 9.7215Z" stroke="black" stroke-width="1.5" stroke-linecap="round" stroke-linejoin="round"/>
</g>
</svg>
